<?xml version="1.0" encoding="utf-8"?><!-- Uploaded to: SVG Repo, www.svgrepo.com, Generator: SVG Repo Mixer Tools -->
<svg width="800px" height="800px" viewBox="0 0 16 16" xmlns="http://www.w3.org/2000/svg">
  <path fill="#E2DEFF" d="M1,12.0053 C2.04176,11.4565 2.84966,10.8021 3.42369,10.0422 C4.01898,9.26121 4.35915,8.34301 4.44419,7.2876 C4.21033,7.37203 3.9552,7.41425 3.67882,7.41425 C2.9347,7.41425 2.31815,7.18206 1.82916,6.71768 C1.34017,6.23219 1.09567,5.6095 1.09567,4.8496 C1.09567,3.98417 1.3508,3.29815 1.86105,2.79156 C2.3713,2.26385 3.01974,2 3.80638,2 C4.82688,2 5.63478,2.40106 6.23007,3.20317 C6.82536,3.98417 7.12301,5.07124 7.12301,6.46438 C7.12301,8.11082 6.68717,9.57784 5.81549,10.8654 C4.96507,12.153 3.71071,13.1979 2.05239,14 L1,12.0053 Z M8.87699,12.0053 C9.91875,11.4565 10.7267,10.8021 11.3007,10.0422 C11.896,9.26121 12.2361,8.34301 12.3212,7.2876 C12.0873,7.37203 11.8322,7.41425 11.5558,7.41425 C10.8117,7.41425 10.1951,7.18206 9.70615,6.71768 C9.21716,6.23219 8.97267,5.6095 8.97267,4.8496 C8.97267,3.98417 9.22779,3.29815 9.73804,2.79156 C10.2483,2.26385 10.8967,2 11.6834,2 C12.7039,2 13.5118,2.40106 14.1071,3.20317 C14.7024,3.98417 15,5.07124 15,6.46438 C15,8.11082 14.5642,9.57784 13.6925,10.8654 C12.8421,12.153 11.5877,13.1979 9.92938,14 L8.87699,12.0053 Z"/>
</svg>